<svg width="32" height="32" viewBox="0 0 32 32" fill="none" xmlns="http://www.w3.org/2000/svg">
<circle cx="16" cy="16" r="16" fill="white"/>
<g clip-path="url(#clip0_372_732)">
<path d="M15.9996 8.95996C15.2934 8.95996 14.7196 9.53371 14.7196 10.24C14.7196 10.835 15.1296 11.3312 15.6796 11.475V12.48H12.8096C11.3921 12.48 10.2396 13.6325 10.2396 15.05V16.32H8.63965V20.16H10.2396V23.04H21.7596V20.16H23.3596V16.32H21.7596V15.05C21.7596 13.6325 20.6071 12.48 19.1896 12.48H16.3196V11.475C16.8709 11.3312 17.2796 10.835 17.2796 10.24C17.2796 9.53371 16.7059 8.95996 15.9996 8.95996ZM15.9996 9.59996C16.3521 9.59996 16.6396 9.88746 16.6396 10.24C16.6396 10.5925 16.3521 10.88 15.9996 10.88C15.6471 10.88 15.3596 10.5925 15.3596 10.24C15.3596 9.88746 15.6471 9.59996 15.9996 9.59996ZM12.8096 13.12H19.1896C20.2534 13.12 21.1196 13.9862 21.1196 15.05V22.4H19.1996V19.84H12.7996V22.4H10.8796V15.05C10.8796 13.9862 11.7459 13.12 12.8096 13.12ZM13.9196 15.04C13.1259 15.04 12.4796 15.6862 12.4796 16.48C12.4796 17.2737 13.1259 17.92 13.9196 17.92C14.7134 17.92 15.3596 17.2737 15.3596 16.48C15.3596 15.6862 14.7134 15.04 13.9196 15.04ZM18.0796 15.04C17.2859 15.04 16.6396 15.6862 16.6396 16.48C16.6396 17.2737 17.2859 17.92 18.0796 17.92C18.8734 17.92 19.5196 17.2737 19.5196 16.48C19.5196 15.6862 18.8734 15.04 18.0796 15.04ZM13.9196 15.68C14.3609 15.68 14.7196 16.0387 14.7196 16.48C14.7196 16.9212 14.3609 17.28 13.9196 17.28C13.4784 17.28 13.1196 16.9212 13.1196 16.48C13.1196 16.0387 13.4784 15.68 13.9196 15.68ZM18.0796 15.68C18.5209 15.68 18.8796 16.0387 18.8796 16.48C18.8796 16.9212 18.5209 17.28 18.0796 17.28C17.6384 17.28 17.2796 16.9212 17.2796 16.48C17.2796 16.0387 17.6384 15.68 18.0796 15.68ZM9.27965 16.96H10.2396V19.52H9.27965V16.96ZM21.7596 16.96H22.7196V19.52H21.7596V16.96ZM13.4396 20.48H14.7196V22.4H13.4396V20.48ZM15.3596 20.48H16.6396V22.4H15.3596V20.48ZM17.2796 20.48H18.5596V22.4H17.2796V20.48Z" fill="#274260"/>
</g>
<defs>
<clipPath id="clip0_372_732">
<rect width="16" height="16" fill="white" transform="translate(8 8)"/>
</clipPath>
</defs>
</svg>
