<svg width="20" height="20" viewBox="0 0 20 20" fill="none" xmlns="http://www.w3.org/2000/svg">
<path fill-rule="evenodd" clip-rule="evenodd" d="M8.48964 2.16015C7.98698 1.68695 7.9631 0.895853 8.4363 0.393191C8.90951 -0.109471 9.7006 -0.13335 10.2033 0.339854L19.2455 8.85218C19.6899 9.04381 20.001 9.48585 20.001 10.0006C20.001 10.5154 19.6898 10.9575 19.2452 11.1491L10.2033 19.6611C9.7006 20.1343 8.90951 20.1104 8.4363 19.6078C7.9631 19.1051 7.98698 18.314 8.48964 17.8408L15.4901 11.2506H1.25003C0.559669 11.2506 2.67029e-05 10.6909 2.67029e-05 10.0006C2.67029e-05 9.3102 0.559669 8.75055 1.25003 8.75055H15.4903L8.48964 2.16015Z" fill="white"/>
</svg>
