<svg width="80" height="79" viewBox="0 0 80 79" fill="none" xmlns="http://www.w3.org/2000/svg">
<path d="M75 39.5C75 46.3234 72.9473 52.9937 69.1014 58.6672C65.2556 64.3406 59.7893 68.7626 53.3939 71.3738C46.9985 73.9851 39.9612 74.6683 33.1719 73.3371C26.3825 72.0059 20.1461 68.7201 15.2513 63.8952C10.3565 59.0703 7.02303 52.923 5.67253 46.2307C4.32204 39.5383 5.01514 32.6015 7.66419 26.2975C10.3132 19.9934 14.7993 14.6053 20.555 10.8143C26.3107 7.02342 33.0776 5.00002 39.9999 5" stroke="#E2F5D7" stroke-width="10"/>
<path d="M40 5C46.9223 5 53.6892 7.02339 59.4449 10.8143C65.2007 14.6052 69.6867 19.9934 72.3358 26.2974C74.9848 32.6014 75.678 39.5382 74.3275 46.2306C72.977 52.9229 69.6436 59.0702 64.7488 63.8951C59.8539 68.7201 53.6175 72.0059 46.8282 73.3371C40.0389 74.6683 33.0016 73.9851 26.6061 71.3739C20.2107 68.7627 14.7445 64.3407 10.8986 58.6672C7.05275 52.9938 5.00002 46.3235 5 39.5001" stroke="#B0E657" stroke-width="10" stroke-linecap="round"/>
</svg>
